<?xml version="1.0" encoding="UTF-8" standalone="no"?>
<!DOCTYPE svg PUBLIC "-//W3C//DTD SVG 1.1//EN" "http://www.w3.org/Graphics/SVG/1.1/DTD/svg11.dtd">
<svg version="1.1" xmlns="http://www.w3.org/2000/svg" xmlns:xlink="http://www.w3.org/1999/xlink" preserveAspectRatio="xMidYMid meet" viewBox="0 0 640 640" width="640" height="640"><defs><path d="M162.38 198.54L160.5 203.23L159.09 206.58L158.38 211.82L157.29 215.81L156.11 222.23" id="f1mdgQF9Df"></path><path d="M221.78 197.21L222.42 200.72L223.6 204.55L225 208.41L226.89 211.42L228.77 214.08L230.1 221.43" id="d3dZpsE89n"></path><path d="M205.54 156.85L210.06 159.11L213.45 161.75L216.46 165.52L218.35 169.66L219.85 174.93L221.36 179.83L222.49 184.35L223.62 189.24L224 193.38L222.11 197.15L217.59 197.53L213.08 197.53L208.93 198.28L195 198.28L190.86 197.53L186.71 197.15L182.19 196.77L169.77 196.77L165.62 197.15L165.62 197.15L166.38 197.15L165.53 197.21L162.23 199.41L162.23 197.45L162.17 197.45L162.23 197.45L162.23 185.85L162.99 180.96L164.49 176.06L166 171.92L167.88 167.78L169.77 163.26L172.03 159.49L175.42 156.48L179.18 154.59L184.08 154.22L188.6 154.22L193.12 154.59L205.54 156.85Z" id="b6Ya0P4lme"></path><path d="M185.36 184.28C185.36 188.55 180.03 190.39 176.79 190.39C173.54 190.39 170.2 190.16 170.2 185.89C170.2 181.61 174.44 178.14 177.68 178.14C180.92 178.14 185.36 180 185.36 184.28Z" id="h3HmQ1KEyr"></path><path d="M182.04 184.99C182.04 185.97 181.16 186.77 180.07 186.77C178.99 186.77 178.11 185.97 178.11 184.99C178.11 184 178.99 183.21 180.07 183.21C181.16 183.21 182.04 184 182.04 184.99Z" id="akWVe6Dnv"></path><path d="M210.97 184.28C210.97 188.55 205.64 190.39 202.4 190.39C199.16 190.39 195.82 190.16 195.82 185.89C195.82 181.61 200.05 178.14 203.3 178.14C206.54 178.14 210.97 180 210.97 184.28Z" id="buQ2dPH"></path><path d="M207.32 184.99C207.32 185.97 206.44 186.77 205.36 186.77C204.28 186.77 203.4 185.97 203.4 184.99C203.4 184 204.28 183.21 205.36 183.21C206.44 183.21 207.32 184 207.32 184.99Z" id="bM4g5JY8b"></path></defs><g><g><g><g><g><use xlink:href="#f1mdgQF9Df" opacity="1" fill-opacity="0" stroke="#000000" stroke-width="1" stroke-opacity="1"></use></g></g><g><g><use xlink:href="#d3dZpsE89n" opacity="1" fill-opacity="0" stroke="#000000" stroke-width="1" stroke-opacity="1"></use></g></g><g><use xlink:href="#b6Ya0P4lme" opacity="1" fill="#cfdff6" fill-opacity="1"></use><g><use xlink:href="#b6Ya0P4lme" opacity="1" fill-opacity="0" stroke="#000000" stroke-width="1" stroke-opacity="1"></use></g></g><g><use xlink:href="#h3HmQ1KEyr" opacity="1" fill="#ffffff" fill-opacity="1"></use><g><use xlink:href="#h3HmQ1KEyr" opacity="1" fill-opacity="0" stroke="#000000" stroke-width="1" stroke-opacity="1"></use></g></g><g><use xlink:href="#akWVe6Dnv" opacity="1" fill="#4a4545" fill-opacity="1"></use></g><g><use xlink:href="#buQ2dPH" opacity="1" fill="#ffffff" fill-opacity="1"></use><g><use xlink:href="#buQ2dPH" opacity="1" fill-opacity="0" stroke="#000000" stroke-width="1" stroke-opacity="1"></use></g></g><g><use xlink:href="#bM4g5JY8b" opacity="1" fill="#4a4545" fill-opacity="1"></use></g></g></g></g></svg>