<?xml version="1.0" encoding="UTF-8" standalone="no"?>
<!DOCTYPE svg PUBLIC "-//W3C//DTD SVG 1.1//EN" "http://www.w3.org/Graphics/SVG/1.1/DTD/svg11.dtd">
<svg version="1.1" xmlns="http://www.w3.org/2000/svg" xmlns:xlink="http://www.w3.org/1999/xlink" preserveAspectRatio="xMidYMid meet" viewBox="0 0 640 640" width="640" height="640"><defs><path d="M160.58 197.47L160.58 192.34L161.25 186.91L162.92 182.08L164.26 177.25L166.59 171.82L168.59 167.59L171.26 163.07L174.94 159.44L179.27 156.43L184.28 155.52L189.62 155.22L195.29 155.22L200.3 156.12L205.64 158.24L209.98 160.95L213.32 164.27L216.32 167.9L218.99 172.12L220.99 176.95L222.33 182.38L223.66 186.91L224.66 191.44L225 196.27L218.99 196.27L213.32 197.47L207.98 197.78L201.97 197.17L196.96 197.17L191.96 196.87L186.95 196.87L181.94 196.87L176.94 196.87L171.93 197.17L166.93 197.47L161.92 197.47" id="g6qfZa3BN"></path><path d="M160.89 196.57L161.32 201.1L162.64 205.62L163.53 210.15L164.71 214.98L166.05 219.51L168.71 224.64" id="b1CC0R6hwL"></path><path d="M223.57 196.57L223.57 201.4L221.76 205.78L219.11 210.6L217.92 214.98L214.37 219.51L210.93 224.64" id="a7GfXOatp"></path><path d="M186.86 185.47C186.86 189.91 181.32 191.82 177.95 191.82C174.58 191.82 171.12 191.58 171.12 187.14C171.12 182.7 175.51 179.1 178.88 179.1C182.25 179.1 186.86 181.03 186.86 185.47Z" id="b16qVHdQO"></path><path d="M183.85 186.15C183.85 187.17 182.93 188 181.81 188C180.68 188 179.77 187.17 179.77 186.15C179.77 185.13 180.68 184.3 181.81 184.3C182.93 184.3 183.85 185.13 183.85 186.15Z" id="aMD8xpH7d"></path><path d="M213.94 185.47C213.94 189.91 208.41 191.82 205.04 191.82C201.67 191.82 198.2 191.58 198.2 187.14C198.2 182.7 202.6 179.1 205.97 179.1C209.34 179.1 213.94 181.03 213.94 185.47Z" id="an3F6g4Xr"></path><path d="M210.92 185.9C211.04 186.91 210.23 187.85 209.12 187.98C208 188.11 206.99 187.4 206.87 186.39C206.75 185.37 207.56 184.44 208.67 184.31C209.79 184.17 210.8 184.89 210.92 185.9Z" id="dsxSnlgfJ"></path></defs><g><g><g><g><use xlink:href="#g6qfZa3BN" opacity="1" fill="#cfdff6" fill-opacity="1"></use><g><use xlink:href="#g6qfZa3BN" opacity="1" fill-opacity="0" stroke="#000000" stroke-width="1" stroke-opacity="1"></use></g></g><g><g><use xlink:href="#b1CC0R6hwL" opacity="1" fill-opacity="0" stroke="#000000" stroke-width="1" stroke-opacity="1"></use></g></g><g><g><use xlink:href="#a7GfXOatp" opacity="1" fill-opacity="0" stroke="#000000" stroke-width="1" stroke-opacity="1"></use></g></g><g><use xlink:href="#b16qVHdQO" opacity="1" fill="#ffffff" fill-opacity="1"></use><g><use xlink:href="#b16qVHdQO" opacity="1" fill-opacity="0" stroke="#000000" stroke-width="1" stroke-opacity="1"></use></g></g><g><use xlink:href="#aMD8xpH7d" opacity="1" fill="#4a4545" fill-opacity="1"></use></g><g><use xlink:href="#an3F6g4Xr" opacity="1" fill="#ffffff" fill-opacity="1"></use><g><use xlink:href="#an3F6g4Xr" opacity="1" fill-opacity="0" stroke="#000000" stroke-width="1" stroke-opacity="1"></use></g></g><g><use xlink:href="#dsxSnlgfJ" opacity="1" fill="#4a4545" fill-opacity="1"></use></g></g></g></g></svg>