<?xml version="1.0" encoding="UTF-8" standalone="no"?>
<!DOCTYPE svg PUBLIC "-//W3C//DTD SVG 1.1//EN" "http://www.w3.org/Graphics/SVG/1.1/DTD/svg11.dtd">
<svg version="1.1" xmlns="http://www.w3.org/2000/svg" xmlns:xlink="http://www.w3.org/1999/xlink" preserveAspectRatio="xMidYMid meet" viewBox="0 0 640 640" width="640" height="640"><defs><path d="M201.02 290.64L201.02 314.52L205.5 335.41L215.95 354.81L232.37 366.76L254.76 369.74L272.67 351.83L283.11 327.95L306.99 327.95L321.92 341.38L344.31 348.84L363.71 342.87L377.14 324.96L398.04 336.9L417.44 348.84L438.34 347.35L454.76 332.43L471.17 317.5L495.05 321.98L517.44 329.44L538.34 330.93L556.25 316.01L578.64 318.99L599.53 324.96L615.95 313.02L624.9 295.11L624.9 274.22L615.95 256.31L599.53 242.87L580.13 236.9L557.74 238.4L535.35 245.86L512.96 253.32L490.58 257.8L469.68 253.32L450.28 241.38L430.87 233.92L409.98 232.43L390.58 239.89L371.17 253.32L351.77 263.77L329.38 269.74L308.49 265.26L292.07 253.32L269.68 245.86L248.79 244.37L229.38 251.83L214.46 266.76L201.02 285.73L201.02 290.64Z" id="a1j7h48d5y"></path></defs><g><g><g><use xlink:href="#a1j7h48d5y" opacity="1" fill="#f8f8f8" fill-opacity="1"></use></g></g></g></svg>