<?xml version="1.0" encoding="UTF-8" standalone="no"?>
<!DOCTYPE svg PUBLIC "-//W3C//DTD SVG 1.1//EN" "http://www.w3.org/Graphics/SVG/1.1/DTD/svg11.dtd">
<svg version="1.1" xmlns="http://www.w3.org/2000/svg" xmlns:xlink="http://www.w3.org/1999/xlink" preserveAspectRatio="xMidYMid meet" viewBox="0 0 640 640" width="640" height="640"><defs><path d="M283.02 203.01L283.02 197.68L283.02 191.1L283.34 185.46L283.99 179.5L284.96 174.49L286.59 169.16L287.88 164.14L289.18 159.13L291.12 154.11L293.07 148.78L295.34 143.45L297.6 138.44L300.2 133.11L302.46 128.4L304.73 123.7L307.97 119L310.89 114.61L314.46 110.85L318.99 107.71L323.85 105.21L329.04 103.33L334.87 101.45L340.38 100.19L346.22 99.88L351.72 99.88L357.56 101.13L362.74 102.7L367.6 106.15L370.84 110.54L374.09 115.55L376.03 120.25L377.65 125.58L378.62 130.91L379.59 135.93L380.57 140.94L381.22 145.96L382.84 150.97L384.78 156.3L386.4 161.32L388.35 166.65L390.61 174.49L392.23 179.81L394.18 186.08L395.8 191.1L398.07 196.43L392.88 197.06L387.7 197.06L381.86 197.06L376.68 197.06L371.17 197.06L365.98 197.37L360.47 197.68L355.29 198L349.13 198.31L342.97 198.62L337.79 199.25L331.96 199.56L326.12 199.56L318.67 199.56L312.84 200.19L307 200.82L300.2 201.13L295.01 201.45L289.83 201.76L284.64 203.01" id="g4S9QVBdVZ"></path><path d="M327.53 160.67L312 184.43L298.55 165.3L312.68 145.62L327.53 160.67Z" id="d4LXysC1l5"></path><path d="M373.53 161.95L354.61 184.43L346.59 161.05L363.39 142.68L373.53 161.95Z" id="d1XOOwTdfO"></path><path d="M308.74 164.37L305.02 169.13L302.51 164.84L305.86 160.91L308.74 164.37Z" id="c16HIPCzow"></path><path d="M357.91 163.75L354.2 168.51L351.69 164.21L355.03 160.29L357.91 163.75Z" id="kZHSpBTvh"></path><path d="M283.08 202.36L284.96 207.06L287.47 211.45L290.6 215.84L294.68 219.92L297.81 224.62L300.63 229.32L303.77 233.71L305.96 238.41" id="f8Cs1mWOt"></path><path d="M398.13 196.41L394.37 200.79L390.92 205.18L388.1 209.57L385.27 213.96L382.45 218.98L379.95 224.62L377.44 229.63L375.56 234.65" id="d1WgJuNUL"></path></defs><g><g><g><g><use xlink:href="#g4S9QVBdVZ" opacity="1" fill="#dedede" fill-opacity="1"></use><g><use xlink:href="#g4S9QVBdVZ" opacity="1" fill-opacity="0" stroke="#000000" stroke-width="1" stroke-opacity="1"></use></g></g><g><use xlink:href="#d4LXysC1l5" opacity="1" fill="#ffffff" fill-opacity="1"></use><g><use xlink:href="#d4LXysC1l5" opacity="1" fill-opacity="0" stroke="#000000" stroke-width="1" stroke-opacity="1"></use></g></g><g><use xlink:href="#d1XOOwTdfO" opacity="1" fill="#ffffff" fill-opacity="1"></use><g><use xlink:href="#d1XOOwTdfO" opacity="1" fill-opacity="0" stroke="#000000" stroke-width="1" stroke-opacity="1"></use></g></g><g><use xlink:href="#c16HIPCzow" opacity="1" fill="#000000" fill-opacity="1"></use></g><g><use xlink:href="#kZHSpBTvh" opacity="1" fill="#000000" fill-opacity="1"></use></g><g><g><use xlink:href="#f8Cs1mWOt" opacity="1" fill-opacity="0" stroke="#000000" stroke-width="1" stroke-opacity="1"></use></g></g><g><g><use xlink:href="#d1WgJuNUL" opacity="1" fill-opacity="0" stroke="#000000" stroke-width="1" stroke-opacity="1"></use></g></g></g></g></g></svg>