<?xml version="1.0" encoding="UTF-8" standalone="no"?>
<!DOCTYPE svg PUBLIC "-//W3C//DTD SVG 1.1//EN" "http://www.w3.org/Graphics/SVG/1.1/DTD/svg11.dtd">
<svg version="1.1" xmlns="http://www.w3.org/2000/svg" xmlns:xlink="http://www.w3.org/1999/xlink" preserveAspectRatio="xMidYMid meet" viewBox="0 0 640 640" width="640" height="640"><defs><path d="M284.29 201.82L284.29 186.82L284.78 174.22L287.68 159.83L292.04 147.83L296.89 136.43L301.73 125.63L308.51 116.63L316.26 107.63L324.98 102.83L336.12 99.83L348.23 99.83L358.89 102.83L369.06 108.83L374.38 118.07L376.81 129.83L381.17 141.23L385.52 152.63L389.4 164.63L393.27 176.62L395.7 188.02L398.12 198.82L388.92 197.02L378.74 198.82L369.06 198.82L358.4 198.82L349.2 198.82L339.03 198.82L328.86 198.82L319.17 198.82L308.51 200.02L298.82 201.82L284.29 201.82" id="a1ANi9Tuqp"></path><path d="M326.39 159.88L310.85 183.64L297.4 164.51L311.53 144.82L326.39 159.88Z" id="bCBZSNOqL"></path><path d="M372.37 161.64L353.45 184.12L345.43 160.74L362.22 142.37L372.37 161.64Z" id="b2mQGGH1Jz"></path><path d="M309.16 165.52L305.44 160.75L302.93 165.05L306.28 168.97L309.16 165.52Z" id="a1L9u5MOx5"></path><path d="M356.38 164.19L352.66 159.42L350.15 163.72L353.5 167.64L356.38 164.19Z" id="b1jGvVZedO"></path><path d="M284.29 201.16L282.55 204.33L281.81 206.41L279.53 208.77L278.05 211.15L276.19 213.84L273.97 217.28L272.89 219.93L271.77 222.74L270.06 226.56L268.25 229.96L266.71 233.04L264.92 236.54L264.32 240.22" id="a36kLIpHPf"></path><path d="M398.12 198.75L398.86 201.3L399.19 203.84L399.71 207.36L400.44 211.93L401.92 218.21L403.73 223.72L403.73 228.11L404.69 232.41C405.39 233.82 405.83 234.7 406.01 235.06C406.01 235.06 406.29 235.65 406.29 235.65C406.45 236.02 406.87 236.95 407.53 238.44L407.53 241.95L407.53 245.27" id="a6dc3dISM"></path></defs><g><g><g><g><use xlink:href="#a1ANi9Tuqp" opacity="1" fill="#dedede" fill-opacity="1"></use><g><use xlink:href="#a1ANi9Tuqp" opacity="1" fill-opacity="0" stroke="#000000" stroke-width="1" stroke-opacity="1"></use></g></g><g><use xlink:href="#bCBZSNOqL" opacity="1" fill="#ffffff" fill-opacity="1"></use><g><use xlink:href="#bCBZSNOqL" opacity="1" fill-opacity="0" stroke="#000000" stroke-width="1" stroke-opacity="1"></use></g></g><g><use xlink:href="#b2mQGGH1Jz" opacity="1" fill="#ffffff" fill-opacity="1"></use><g><use xlink:href="#b2mQGGH1Jz" opacity="1" fill-opacity="0" stroke="#000000" stroke-width="1" stroke-opacity="1"></use></g></g><g><use xlink:href="#a1L9u5MOx5" opacity="1" fill="#000000" fill-opacity="1"></use></g><g><use xlink:href="#b1jGvVZedO" opacity="1" fill="#000000" fill-opacity="1"></use></g><g><g><use xlink:href="#a36kLIpHPf" opacity="1" fill-opacity="0" stroke="#000000" stroke-width="1" stroke-opacity="1"></use></g></g><g><g><use xlink:href="#a6dc3dISM" opacity="1" fill-opacity="0" stroke="#000000" stroke-width="1" stroke-opacity="1"></use></g></g></g></g></g></svg>