<?xml version="1.0" encoding="UTF-8" standalone="no"?>
<!DOCTYPE svg PUBLIC "-//W3C//DTD SVG 1.1//EN" "http://www.w3.org/Graphics/SVG/1.1/DTD/svg11.dtd">
<svg version="1.1" xmlns="http://www.w3.org/2000/svg" xmlns:xlink="http://www.w3.org/1999/xlink" preserveAspectRatio="xMidYMid meet" viewBox="0 0 640 640" width="640" height="640"><defs><path d="M24.83 310.05L41.12 306.77L59.56 308.23L79.21 308.23L100.2 310.05L99.69 367.71L24.83 367.71L24.83 310.05Z" id="c310rzm4AZ"></path><path d="M24.61 332.4L40.9 330.28L59.34 331.22L78.99 331.22L99.98 332.4L99.98 369.74L24.61 369.74L24.61 332.4Z" id="i1KdknXwlp"></path><path d="M24 334.46L24.37 339.68L27.4 343.78L31.17 347.14L35.7 344.53L38.73 340.43L41.75 336.32L47.03 336.32L51.19 340.05L54.96 336.32L58.36 332.59L62.52 335.58L67.43 338.56L72.34 340.8L76.87 338.19L81.78 336.32L87.06 336.7L92.35 337.44L97.64 337.81L100.28 336.7L100.2 331.34L99.13 327.36L24.74 328.33L24 334.46Z" id="a4sUsqnCrY"></path></defs><g><g><g><g><use xlink:href="#c310rzm4AZ" opacity="1" fill="#76b072" fill-opacity="1"></use></g><g><use xlink:href="#i1KdknXwlp" opacity="1" fill="#9b7b62" fill-opacity="1"></use></g><g><use xlink:href="#a4sUsqnCrY" opacity="1" fill="#76b072" fill-opacity="1"></use></g></g></g></g></svg>