<?xml version="1.0" encoding="UTF-8" standalone="no"?>
<!DOCTYPE svg PUBLIC "-//W3C//DTD SVG 1.1//EN" "http://www.w3.org/Graphics/SVG/1.1/DTD/svg11.dtd">
<svg version="1.1" xmlns="http://www.w3.org/2000/svg" xmlns:xlink="http://www.w3.org/1999/xlink" preserveAspectRatio="xMidYMid meet" viewBox="0 0 640 640" width="640" height="640"><defs><path d="M175.04 280.41L166.89 275.81L157.66 277.86L147.83 277.86L137.33 280.41L137.59 361.35L175.04 361.35L175.04 280.41Z" id="enbctwd3D"></path><path d="M175.15 340.79L167 339.46L157.77 340.05L147.94 340.05L137.44 340.79L137.44 364.19L175.15 364.19L175.15 340.79Z" id="h1eVcvmsVG"></path><path d="M175.19 346.13L175 353.46L173.49 359.22L171.6 363.94L169.33 360.27L167.82 354.51L166.31 348.75L163.66 348.75L161.59 353.99L159.7 348.75L158 343.51L155.92 347.7L153.46 351.89L151.01 355.03L148.74 351.37L146.28 348.75L143.64 349.27L140.99 350.32L138.35 350.84L137.03 349.27L137.07 341.75L137.6 336.17L174.82 337.54L175.19 346.13Z" id="c1GyCZxk1Z"></path></defs><g><g><g><g><use xlink:href="#enbctwd3D" opacity="1" fill="#76b072" fill-opacity="1"></use></g><g><use xlink:href="#h1eVcvmsVG" opacity="1" fill="#9b7b62" fill-opacity="1"></use></g><g><use xlink:href="#c1GyCZxk1Z" opacity="1" fill="#76b072" fill-opacity="1"></use></g></g></g></g></svg>